<svg fill="none" height="54" viewBox="0 0 54 54" width="54" xmlns="http://www.w3.org/2000/svg">
  <g clip-path="url(#clip0_51_3317)">
    <path d="M53.9995 3.86426H6.57617V4.86453H53.9995V3.86426Z" fill="#BD9A00"></path>
    <path d="M43.768 5.71509H14.0762V6.71536H43.768V5.71509Z" fill="#BD9A00"></path>
    <path d="M7.63574 13.2444H6.63379V42.8865H7.63574V13.2444Z" fill="#BD9A00"></path>
    <path d="M5.74804 6.65601H4.74609V54H5.74804V6.65601Z" fill="#BD9A00"></path>
    <path d="M3.15078 1.98691C4.53303 3.36775 5.39419 4.74586 5.07057 5.06529C4.74695 5.38472 3.36927 4.52591 1.98702 3.14872C0.604774 1.77152 -0.253645 0.387021 0.0672336 0.0666786C0.388113 -0.253664 1.76762 0.606971 3.15078 1.98691Z" fill="#BD9A00"></path>
    <path d="M5.8723 2.53713C6.06794 3.52918 6.0396 4.37065 5.80922 4.41537C5.57885 4.46009 5.2342 3.69346 5.03765 2.70049C4.8411 1.70752 4.87036 0.867879 5.10073 0.822246C5.33111 0.776613 5.67667 1.54416 5.8723 2.53713Z" fill="#BD9A00"></path>
    <path d="M3.34713 5.59009C4.34816 5.43038 5.18921 5.48787 5.22577 5.71969C5.26234 5.9515 4.48254 6.26728 3.48242 6.42791C2.48231 6.58854 1.64034 6.53013 1.60377 6.29922C1.56721 6.06832 2.34701 5.74981 3.34713 5.59009Z" fill="#BD9A00"></path>
    <path d="M6.13184 5.91211C9.86019 7.77602 13.3098 10.1502 16.3808 12.966C19.484 15.8405 21.9525 19.3297 23.6284 23.2106C23.8356 23.6973 24.0298 24.1899 24.2108 24.6882C24.4011 25.2068 24.5502 25.7396 24.6569 26.2817C24.878 27.3363 25.0067 28.4082 25.0418 29.4851C25.1754 31.695 24.7747 33.9046 23.8734 35.9275C23.6215 36.4465 23.3184 36.939 22.9684 37.3978C22.6043 37.8575 22.1908 38.2759 21.7351 38.6454C20.8117 39.357 19.7539 39.875 18.625 40.1684C17.4962 40.4619 16.3196 40.5246 15.1658 40.353C14.0012 40.1535 12.8994 39.6847 11.9488 38.984C11.0334 38.2998 10.2424 37.4639 9.61031 36.5125C8.981 35.5839 8.48267 34.5732 8.12933 33.509C7.94647 32.9675 7.81157 32.4111 7.72618 31.8461C7.65602 31.285 7.62822 30.7194 7.64298 30.1541C7.6618 29.0342 7.84286 27.9229 8.18052 26.8548C8.52212 25.7616 9.06259 24.7407 9.77486 23.8431C10.5121 22.9129 11.4785 22.1896 12.5796 21.7439C13.6849 21.3525 14.8708 21.2436 16.0292 21.4271C17.1875 21.6106 18.2814 22.0806 19.2111 22.7944C20.6184 23.807 21.5836 25.3196 21.9079 27.0209C22.0318 27.5638 22.0998 28.1179 22.1109 28.6746C22.1507 29.8333 21.8168 30.9742 21.1583 31.9292C20.8139 32.4028 20.3773 32.8022 19.8746 33.1035C19.372 33.4047 18.8136 33.6016 18.2329 33.6824C17.0893 33.843 15.9277 33.5576 14.9894 32.8856C14.533 32.5508 14.1594 32.1163 13.8969 31.6152C13.6498 31.1236 13.4981 30.5897 13.4499 30.0418C13.3891 29.4964 13.4661 28.9445 13.6739 28.4364C13.8826 27.9186 14.2887 27.5047 14.8029 27.2856C15.057 27.1893 15.3294 27.1511 15.6002 27.1736C15.8711 27.1962 16.1334 27.2791 16.368 27.4161C16.8197 27.6826 17.2004 28.0539 17.4778 28.4985C17.176 28.0821 16.7785 27.744 16.3186 27.5128C16.0975 27.4023 15.8545 27.3425 15.6073 27.3378C15.3601 27.3331 15.1149 27.3835 14.8897 27.4855C14.4565 27.7105 14.1268 28.0936 13.9691 28.5551C13.8089 29.0172 13.7668 29.5119 13.8466 29.9943C13.9142 30.4697 14.0863 30.9242 14.3505 31.3253C14.6148 31.7264 14.9647 32.0641 15.3752 32.3143C16.1922 32.7773 17.1524 32.9204 18.0693 32.7159C18.5143 32.6412 18.9399 32.4784 19.3209 32.237C19.702 31.9956 20.0308 31.6806 20.288 31.3104C20.7876 30.5351 21.0251 29.6202 20.9654 28.7002C20.9465 27.7629 20.701 26.8439 20.2499 26.0216C19.7989 25.1993 19.1555 24.498 18.3746 23.9772C17.63 23.4628 16.7725 23.1345 15.8744 23.0196C14.9762 22.9048 14.0635 23.0069 13.2131 23.3174C12.3932 23.7097 11.6701 24.2778 11.0952 24.981C10.5204 25.6843 10.1079 26.5054 9.88731 27.386C9.61285 28.294 9.467 29.2358 9.45398 30.1842C9.44339 30.652 9.46784 31.12 9.52712 31.5842C9.60075 32.04 9.71393 32.4886 9.86537 32.9249C10.4487 34.7206 11.5586 36.3001 13.0513 37.459C13.7672 37.9961 14.5985 38.3595 15.4794 38.5204C16.374 38.6704 17.2905 38.6256 18.1662 38.389C19.0532 38.1888 19.8839 37.7923 20.597 37.2289C21.3101 36.6655 21.8875 35.9494 22.2864 35.1335C23.1015 33.3778 23.4858 31.4533 23.4072 29.5198C23.3939 28.5307 23.3056 27.544 23.143 26.5682C23.069 26.0929 22.9565 25.6244 22.8066 25.1673C22.6524 24.6879 22.4842 24.2136 22.3019 23.7445C20.8079 19.9637 18.5832 16.5134 15.7545 13.5903C12.8823 10.6381 9.64931 8.05842 6.13184 5.91211Z" fill="#BD9A00"></path>
    <path d="M26.8783 25.1958C31.5598 25.664 38.4884 26.1021 43.0548 26.3567C40.2519 29.0828 35.414 28.7132 33.6185 28.4558C39.7299 30.6717 45.2973 38.5881 46.4336 41.5634C43.6609 41.6282 36.3584 40.4143 30.993 32.78C31.504 36.7181 29.3475 41.7623 25.6094 43.3284C27.9223 39.321 28.4315 31.1819 26.3224 25.7717C28.7222 30.7959 29.0421 36.8093 27.2759 41.2366C29.6062 38.9477 30.3138 31.8363 29.2615 28.5005C31.9008 32.5527 43.2541 39.4104 43.2541 39.4104C39.7316 34.8909 35.5343 30.9386 30.8093 27.6919C34.2108 28.141 37.6691 27.8664 40.9567 26.886C31.2581 26.3604 26.8783 25.1958 26.8783 25.1958Z" fill="#BD9A00"></path>
    <path d="M7.41314 19.0333C7.3422 17.7618 7.65698 16.4985 8.31635 15.4083C8.68803 14.8293 9.21753 14.3683 9.84262 14.0794C10.4677 13.7905 11.1624 13.6857 11.8451 13.7774C12.5216 13.8547 13.1749 14.0696 13.7649 14.4089C14.3761 14.7456 14.9038 15.215 15.309 15.7825C15.7056 16.3701 15.9537 17.0449 16.0321 17.7492C16.1104 18.4535 16.0166 19.1663 15.7587 19.8264C15.5006 20.4962 15.0669 21.0845 14.5031 21.5297C13.9392 21.9749 13.2659 22.2607 12.5536 22.3572C11.8228 22.458 11.0792 22.3132 10.44 21.9456C9.80564 21.5613 9.34499 20.9467 9.15466 20.2307C8.95878 19.5425 9.01618 18.8069 9.31647 18.1572C9.46139 17.8329 9.67757 17.5453 9.94897 17.3157C10.2204 17.0862 10.54 16.9205 10.8843 16.8311C11.2305 16.7456 11.5954 16.7778 11.9213 16.9226C12.2471 17.0674 12.5153 17.3166 12.6834 17.6306C12.7648 17.7824 12.8094 17.9512 12.8135 18.1233C12.8176 18.2955 12.7812 18.4662 12.7072 18.6217C12.6247 18.7606 12.5101 18.8778 12.373 18.9636C12.236 19.0493 12.0803 19.1011 11.9192 19.1146C12.0625 19.0786 12.1952 19.0093 12.3064 18.9122C12.4177 18.8151 12.5043 18.693 12.5591 18.556C12.5975 18.4252 12.6052 18.2873 12.5814 18.153C12.5576 18.0188 12.503 17.8918 12.422 17.7821C12.2682 17.5682 12.049 17.4101 11.7973 17.3316C11.5457 17.253 11.2753 17.2584 11.0269 17.3468C10.7836 17.4416 10.5638 17.5879 10.3826 17.7757C10.2014 17.9635 10.0632 18.1883 9.97743 18.4346C9.81085 18.9311 9.81924 19.4695 10.0012 19.9606C10.1723 20.4292 10.5096 20.8188 10.9492 21.0558C11.3973 21.279 11.9068 21.3477 12.3982 21.2511C12.9082 21.1716 13.3876 20.9572 13.7865 20.6301C14.1854 20.303 14.4892 19.8752 14.6663 19.3911C14.8618 18.9061 14.9377 18.3812 14.8878 17.8608C14.8378 17.3404 14.6634 16.8395 14.3792 16.4003C13.7497 15.506 12.7927 14.8951 11.7153 14.7001C11.1768 14.5945 10.6197 14.6378 10.1041 14.8254C9.58856 15.0129 9.13412 15.3376 8.7899 15.7642C8.0583 16.7183 7.58425 17.844 7.41314 19.0333Z" fill="#BD9A00"></path>
    <path d="M16.3142 40.0611C14.8734 40.1984 13.4943 40.7121 12.3156 41.5506C11.8134 41.9677 11.4108 42.4915 11.1372 43.0838C10.8789 43.6832 10.7243 44.322 10.6801 44.973C10.5173 46.2331 10.8298 47.5087 11.5568 48.5515C11.9423 48.9977 12.4386 49.3347 12.9957 49.529C13.5843 49.7575 14.2109 49.8724 14.8424 49.8676C15.4488 49.8775 16.0487 49.7424 16.5922 49.4736C17.1356 49.2048 17.6067 48.8101 17.9662 48.3225C18.29 47.8041 18.4796 47.2135 18.5179 46.6038C18.5562 45.9941 18.442 45.3844 18.1856 44.8297C18.0576 44.5694 17.8783 44.3375 17.6584 44.148C17.4385 43.9586 17.1824 43.8154 16.9057 43.7272C16.6045 43.6351 16.2898 43.5947 15.9751 43.6077C15.6537 43.6128 15.3345 43.6613 15.0261 43.7519C14.7332 43.839 14.4744 44.0146 14.2855 44.2545C14.0966 44.4944 13.9868 44.7869 13.9712 45.0917C13.9897 45.4372 14.1345 45.7639 14.3781 46.01C14.6217 46.256 14.9473 46.4044 15.2931 46.4269C14.8991 46.4632 14.5035 46.3772 14.1604 46.1805C13.9788 46.065 13.8231 45.9132 13.7034 45.7346C13.5836 45.5559 13.5023 45.3544 13.4647 45.1428C13.4058 44.6959 13.4895 44.2419 13.7038 43.8453C13.9182 43.4486 14.2522 43.1295 14.6586 42.9332C14.8537 42.8274 15.0613 42.7465 15.2766 42.6923C15.4775 42.6385 15.6814 42.597 15.8873 42.5682C16.3196 42.5041 16.7596 42.5124 17.1891 42.5928C17.6436 42.6802 18.0743 42.8631 18.4525 43.1295C18.8246 43.4039 19.1408 43.7468 19.3841 44.1398C19.8386 44.9086 20.0789 45.7848 20.0798 46.6776C20.0808 47.5703 19.8424 48.4471 19.3895 49.2169C18.9111 49.9885 18.2377 50.6209 17.4368 51.0504C16.6469 51.4566 15.7747 51.6779 14.8863 51.6975C14.0159 51.7186 13.1494 51.5759 12.332 51.2767C11.4676 50.9707 10.7051 50.431 10.1298 49.7179C9.5705 49.0086 9.19695 48.1715 9.0428 47.282C8.91303 46.4528 8.91026 45.6087 9.03457 44.7786C9.13202 43.9319 9.42361 43.1189 9.88672 42.4028C10.3498 41.6868 10.972 41.0869 11.7049 40.6498C13.1251 39.9214 14.7561 39.7131 16.3142 40.0611Z" fill="#BD9A00"></path>
    <path d="M6.37305 5.8418C8.70067 9.23818 11.4471 12.3287 14.5477 15.0405C17.6172 17.7103 21.1829 19.7511 25.0416 21.0466C25.5207 21.2048 26.0037 21.3484 26.4906 21.4774C26.9557 21.6031 27.4302 21.691 27.9094 21.7403C28.8937 21.853 29.8851 21.8905 30.875 21.8525C32.8134 21.8314 34.7188 21.3492 36.4333 20.4461C37.2295 20.0071 37.9167 19.3949 38.4439 18.655C38.9712 17.915 39.3251 17.0662 39.4794 16.1712C39.6706 15.2862 39.6684 14.3703 39.473 13.4862C39.2652 12.6163 38.8584 11.8063 38.2845 11.1197C37.0486 9.69071 35.4113 8.6653 33.5847 8.17637C33.1403 8.04756 32.6854 7.95778 32.2253 7.90805C31.7585 7.87378 31.2898 7.87378 30.8229 7.90805C29.8748 7.97005 28.94 8.16388 28.0456 8.48393C27.1755 8.74869 26.3746 9.20185 25.7 9.8111C25.0254 10.4204 24.4937 11.1707 24.143 12.0086C23.8764 12.8723 23.8213 13.7872 23.9823 14.6765C24.1432 15.5658 24.5156 16.4036 25.0681 17.1195C25.6293 17.871 26.3639 18.4761 27.2095 18.8835C28.0551 19.2909 28.9867 19.4885 29.9252 19.4595C30.849 19.472 31.7524 19.1879 32.5023 18.6491C32.8589 18.3738 33.1568 18.0302 33.3784 17.6384C33.6001 17.2465 33.7411 16.8144 33.7931 16.3675C33.9502 15.4426 33.7573 14.4924 33.2519 13.7016C32.9809 13.3052 32.6253 12.9736 32.2107 12.7306C31.7962 12.4876 31.3328 12.3392 30.854 12.2961C30.3673 12.2409 29.8745 12.3083 29.4206 12.4923C28.9672 12.6732 28.601 13.0212 28.3976 13.4643C28.3071 13.6943 28.2693 13.9416 28.2868 14.1881C28.3044 14.4346 28.3769 14.674 28.4991 14.889C28.7536 15.3354 29.112 15.7142 29.544 15.9933C29.0847 15.74 28.6936 15.3796 28.404 14.9428C28.2557 14.716 28.1598 14.4591 28.1233 14.1908C28.0868 13.9224 28.1105 13.6493 28.1928 13.3913C28.3865 12.8662 28.7811 12.4395 29.2898 12.2048C29.7877 11.9715 30.3361 11.8663 30.8851 11.8991C31.4357 11.9196 31.9775 12.0434 32.4822 12.2642C32.9965 12.5004 33.4502 12.8506 33.8087 13.2882C34.5292 14.1897 34.8742 15.3336 34.7722 16.4824C34.7221 17.0665 34.5543 17.6343 34.2787 18.1519C34.0032 18.6695 33.6256 19.1261 33.1687 19.4942C32.2476 20.2007 31.1232 20.5924 29.9618 20.6113C29.4043 20.629 28.8465 20.5898 28.297 20.4945C26.5801 20.2563 25.0194 19.3718 23.9345 18.0221C23.173 17.1316 22.6468 16.065 22.4039 14.9195C22.161 13.7739 22.2092 12.5859 22.5441 11.4638C22.9334 10.3435 23.6068 9.34294 24.4986 8.55968C25.358 7.80366 26.3497 7.21241 27.424 6.8156C28.4754 6.42411 29.5781 6.18649 30.6977 6.11012C31.2625 6.06762 31.8296 6.06762 32.3944 6.11012C32.9639 6.16632 33.5273 6.27198 34.0783 6.4259C35.1583 6.72382 36.1924 7.16784 37.1518 7.7456C38.1363 8.32633 39.0133 9.0719 39.7445 9.94966C40.4958 10.861 41.023 11.9353 41.284 13.0865C41.5152 14.228 41.5129 15.4045 41.2773 16.5451C41.0417 17.6858 40.5775 18.7671 39.9127 19.7242C39.5657 20.1979 39.1671 20.6316 38.7242 21.0174C38.2836 21.3901 37.8068 21.7179 37.3008 21.9958C35.3231 22.9979 33.1331 23.5107 30.9153 23.4907C29.8363 23.5126 28.7575 23.4412 27.6909 23.2772C27.1435 23.1974 26.6032 23.0753 26.0747 22.9121C25.567 22.7582 25.0642 22.5899 24.5662 22.4074C20.5995 20.9318 16.9847 18.6466 13.9526 15.6976C10.9794 12.7801 8.42828 9.46287 6.37305 5.8418Z" fill="#BD9A00"></path>
    <path d="M19.5642 6.44512C18.3834 6.67592 17.2817 7.20542 16.3645 7.98294C15.9547 8.3482 15.6529 8.81847 15.4917 9.34278C15.3306 9.86709 15.3163 10.4254 15.4503 10.9573C15.703 12.0225 16.3662 12.9453 17.2961 13.5255C17.75 13.7864 18.26 13.9346 18.7833 13.9576C19.3065 13.9807 19.8277 13.8779 20.3028 13.6578C20.7778 13.4563 21.1901 13.1314 21.4968 12.717C21.8035 12.3026 21.9935 11.8138 22.0471 11.3014C22.1191 10.8065 22.0242 10.3018 21.7774 9.86666C21.5167 9.44026 21.1085 9.12401 20.6301 8.97773C20.1294 8.82218 19.5907 8.8415 19.1025 9.0325C18.8598 9.13048 18.6414 9.28001 18.4624 9.4707C18.2833 9.66139 18.148 9.88869 18.0658 10.1368C17.9895 10.3887 17.9974 10.6586 18.0885 10.9057C18.1796 11.1527 18.3487 11.3633 18.5704 11.5058C18.6842 11.581 18.8139 11.629 18.9493 11.6459C19.0848 11.6628 19.2223 11.6483 19.3511 11.6034C19.485 11.5419 19.6024 11.4496 19.6938 11.3341C19.7851 11.2187 19.8478 11.0833 19.8768 10.939C19.8716 11.1004 19.8279 11.2582 19.7494 11.3993C19.6708 11.5404 19.5597 11.6607 19.4252 11.7504C19.2733 11.8319 19.1044 11.8768 18.932 11.8816C18.7597 11.8863 18.5886 11.8508 18.4324 11.7778C18.1095 11.6262 17.8465 11.3715 17.6847 11.054C17.523 10.7365 17.4718 10.3743 17.5392 10.0246C17.6111 9.67682 17.7604 9.34969 17.9761 9.06738C18.1918 8.78507 18.4684 8.5548 18.7853 8.39364C19.42 8.06055 20.1533 7.96536 20.8522 8.12531C21.5774 8.27782 22.2155 8.70422 22.6331 9.31542C23.0336 9.93393 23.2166 10.6679 23.1532 11.4017C23.0932 12.1169 22.8419 12.8028 22.4256 13.3879C22.0092 13.9729 21.4431 14.4356 20.7864 14.7275C20.1391 15.0184 19.4308 15.1484 18.7221 15.1063C18.0134 15.0641 17.3256 14.8512 16.7174 14.4856C16.1289 14.1112 15.6324 13.6093 15.2647 13.0171C14.8942 12.4469 14.6452 11.8066 14.5334 11.1362C14.4068 10.4602 14.4759 9.76226 14.7327 9.12419C14.9895 8.48612 15.4234 7.93444 15.9833 7.53391C17.04 6.81966 18.288 6.4402 19.5642 6.44512Z" fill="#BD9A00"></path>
    <path d="M41.0566 14.2437C40.6278 12.7082 40.7514 11.0714 41.4058 9.61743C41.8057 8.86451 42.3739 8.21363 43.0664 7.71524C43.7589 7.21685 44.557 6.88434 45.3989 6.74348C46.2229 6.57648 47.0676 6.53585 47.9038 6.62301C48.8024 6.73011 49.6599 7.0595 50.3986 7.5813C51.1415 8.11827 51.7203 8.85067 52.0707 9.69683C52.4107 10.4968 52.5968 11.3535 52.6192 12.2222C52.6456 13.1087 52.4689 13.9896 52.1027 14.7977C51.7134 15.6185 51.1143 16.3223 50.3657 16.8384C49.6191 17.3299 48.7542 17.6129 47.861 17.6579C46.9678 17.7028 46.0788 17.5081 45.2865 17.0939C44.8807 16.8718 44.5214 16.5741 44.2279 16.2168C43.9417 15.8536 43.7366 15.4335 43.6263 14.9848C43.524 14.5608 43.4931 14.1229 43.5349 13.6888C43.5526 13.4818 43.5832 13.276 43.6263 13.0727C43.6689 12.8555 43.7389 12.6445 43.8348 12.4448C44.0105 12.028 44.3139 11.6773 44.7014 11.443C45.0889 11.2088 45.5408 11.1029 45.9922 11.1407C46.206 11.1667 46.4119 11.237 46.5968 11.347C46.7818 11.457 46.9417 11.6043 47.0664 11.7795C47.2803 12.1116 47.3869 12.5012 47.3718 12.8957C47.3311 12.5521 47.1658 12.2353 46.9071 12.0051C46.6483 11.7749 46.3141 11.6472 45.9676 11.6463C45.6631 11.678 45.376 11.8033 45.146 12.0049C44.9159 12.2064 44.7542 12.4743 44.6831 12.7716C44.6079 13.0837 44.5753 13.4045 44.5862 13.7253C44.5903 14.0398 44.6471 14.3514 44.7544 14.6471C44.8573 14.9177 45.0138 15.1649 45.2146 15.3737C45.4153 15.5826 45.6562 15.7489 45.9228 15.8627C46.4909 16.0897 47.1066 16.1721 47.7146 16.1026C48.3226 16.0332 48.9037 15.814 49.4058 15.4648C49.8751 15.0812 50.2458 14.5912 50.4869 14.0355C50.728 13.4798 50.8325 12.8747 50.7917 12.2705C50.7638 11.6402 50.6165 11.0208 50.3575 10.4452C50.1344 9.89958 49.7715 9.42212 49.3053 9.06071C48.2249 8.38969 46.9333 8.14376 45.6814 8.37075C45.0323 8.44643 44.4008 8.63159 43.8137 8.91834C43.2356 9.22194 42.7325 9.65031 42.341 10.1723C41.5614 11.393 41.1184 12.7974 41.0566 14.2437Z" fill="#BD9A00"></path>
  </g>
  <defs>
    <clipPath id="clip0_51_3317">
      <rect fill="white" height="54" width="54"></rect>
    </clipPath>
  </defs>
</svg>
