<svg
  viewbox="0 0 1024 1024"
  width="1024" height="1024"
  xmlns="http://www.w3.org/2000/svg">
<defs>
  <filter id="grain" x="0%" y="0%" width="100%" height="100%">
    <feTurbulence
      type="fractalNoise"
      seed="8" numOctaves="4"
      baseFrequency="0.008"
      result="noise"/>
    <feDiffuseLighting
      surfaceScale="2"
      lighting-color="white"
      in="noise" result="diffLight">
    <feDistantLight elevation="33" azimuth="45"/>
  </feDiffuseLighting>
  <feComposite
    operator="in"
    in2="SourceGraphic" result="mask" />
  <feBlend
    mode="multiply"
    in="mask" in2="SourceGraphic" result="result"/>
</filter>

<filter id="MyFilter" filterUnits="userSpaceOnUse" x="0" y="0" width="125%" height="125%">
  <desc>Produces a 3D lighting effect.</desc>
  <feGaussianBlur in="SourceAlpha" stdDeviation="4" result="blur"/>
  <feOffset in="blur" dx="8" dy="8" result="offsetBlur"/>
  <feSpecularLighting in="blur" surfaceScale="5" specularConstant=".75"
                      specularExponent="20" lighting-color="#bbbbbb"
                      result="specOut">
    <fePointLight x="-5000" y="-10000" z="20000"/>
  </feSpecularLighting>
  <feComposite in="specOut" in2="SourceAlpha" operator="in" result="specOut"/>
  <feComposite in="SourceGraphic" in2="specOut" operator="arithmetic"
               k1="0" k2="1" k3="1" k4="0" result="litPaint"/>
  <feMerge>
    <feMergeNode in="offsetBlur"/>
    <feMergeNode in="litPaint"/>
  </feMerge>
</filter>

  </defs>
  <rect
    x="0" y="0" width="100%" height="100%"
    fill="#c0b030"
    filter="url(#grain)"/>
  <path d="
    M 0 0 h 1024 v 1024 h -1024z
    M 64 832 l 64 128 l 64 -128z
    M 160 64 l 64 128 l 64 -128z
    M 384 384 l 64 128 l 64 -128z
    M 640 512 l 64 128 l 64 -128z
    M 768 768 l 64 128 l 64 -128z
    M 576 128 l 128 256 l 128 -256z
    M 128 256 l 128 256 l 128 -256z
    M 320 640 l 128 256 l 128 -256z
    " fill="#101010" />
</svg>
