<?xml version="1.0" encoding="UTF-8" standalone="no"?>
<svg
   width="104"
   height="69"
   viewBox="0 0 104 69"
   fill="none"
   version="1.1"
   id="svg188"
   xmlns:xlink="http://www.w3.org/1999/xlink"
   xmlns="http://www.w3.org/2000/svg"
   xmlns:svg="http://www.w3.org/2000/svg">
  <path
     d="m 15.807,-7.32422e-4 c 0,0 -6.32665,2.317442422 -6.05529,9.107172422 l 10.04799,8.68176 6.7807,-7.0887 c 0,0 -8.2037,-3.22088 -10.7637,-10.700232422 z"
     fill="#87c6d6"
     id="path1" />
  <path
     d="m 12.4392,10.5728 c 0.1077,0.4074 0.1899,0.7606 0.2441,1.0682 L 9.75172,9.10644 C 9.48783,2.31671 15.807,-7.32422e-4 15.807,-7.32422e-4 c 0,0 -5.2595,3.285912422 -3.3749,10.573532422 z"
     fill="#77acab"
     id="path2" />
  <path
     d="m 15.5079,4.48853 c 0,0 -0.4882,5.02435 6.3464,9.12507 l 0.8971,-2.1724 c 0,0 -5.0614,-2.4703 -7.2435,-6.95267 z"
     fill="#c7fbf4"
     id="path3" />
  <path
     d="m 22.569,48.8674 -8.2823,0.8784 3.0486,6.3999 10.476,-0.3529 z"
     fill="#18388a"
     id="path4" />
  <path
     d="m 15.6604,48.6487 -2.3073,0.4253 c -0.4429,5.7563 3.4683,8.7181 3.4683,8.7181 l 1.4731,-2.5619 c -2.7249,-2.6706 -2.6341,-6.5815 -2.6341,-6.5815 z"
     fill="#4949ba"
     id="path5" />
  <path
     d="M 27.8001,55.7924 18.2859,55.2317 16.8102,57.794 27.9115,56.8793 27.7922,55.7931 Z"
     fill="#360c72"
     id="path6" />
  <path
     d="m 17.6617,40.0667 -9.69588,1.0234 3.57628,7.4954 12.2503,-0.4071 z"
     fill="#3e78cf"
     id="path7" />
  <path
     d="M 9.58645,39.8147 6.88999,40.3126 C 6.3667,47.0477 10.9459,50.5243 10.9459,50.5243 l 1.7287,-2.9966 C 9.4788,44.4043 9.59504,39.8147 9.59504,39.8147 Z"
     fill="#4949ba"
     id="path8" />
  <path
     d="m 23.7894,48.179 -11.1346,-0.6612 -1.7193,2.997 12.9911,-1.0686 z"
     fill="#061778"
     id="path9" />
  <path
     d="M 22.9293,29.7475 6.25424,23.9446 v 14.0048 l 17.11206,1.6928 h 0.0086 v -0.0089 z"
     fill="#82bbf0"
     id="path10" />
  <path
     d="m 8.01099,29.7463 c 0,0 1.74853,4.2821 14.45031,6.536 l 0.65,-1.9011 z"
     fill="#90f0e7"
     id="path11" />
  <path
     d="m 6.26583,23.9442 -0.8597,-0.8971 c -3.77518,11.117 0,17.6623 0,17.6623 L 8.7182,37.1338 C 6.29161,32.6252 6.27442,23.9434 6.27442,23.9434 Z"
     fill="#6666cc"
     id="path12" />
  <path
     d="M 8.70959,37.1252 23.8103,39.8049 23.376,41.8326 5.3949,40.7012 Z"
     fill="#2a3296"
     id="path13" />
  <path
     d="m 2.98627,0.107666 c 0,0 -3.513547,5.440754 -2.679269,13.588434 0.004212,0.0819 0.012702,0.1634 0.025424,0.2444 0.297199,2.8496 1.361485,5.5653 3.079585,7.858 1.71746,2.2908 4.01787,4.0791 6.66149,5.1784 l 13.7443,5.6572 0.8773,-6.1016 z"
     fill="#29668e"
     id="path14" />
  <path
     d="m 0.308119,13.6953 c 0.004211,0.0819 0.012684,0.1635 0.025405,0.2444 0.298045,2.848 1.358996,5.5627 3.070986,7.858 L 5.04915,16.1305 3.57346,0.812938 2.99449,0.0979004 c 0,0 -3.510943,5.4407496 -2.679655,13.5883996 z"
     fill="#50a3a2"
     id="path15" />
  <path
     d="M 28.0356,24.2789 2.98629,0.107666 c 0,0 -4.38257,13.896434 3.84584,19.826034 7.26177,5.2247 19.31327,9.2242 19.31327,9.2242 l 1.8902,-4.8707 z"
     fill="#bbc0ed"
     id="path16" />
  <path
     d="m 2.98627,0.107666 c 0,0 2.0184,8.872054 9.52243,14.937434 7.5048,6.0552 13.8344,9.7317 13.8344,9.7317 l 0.5606,-1.7923 z"
     fill="#c7fbf4"
     id="path17" />
  <path
     d="M 28.0269,25.6009 2.78851,10.2385 c 0,0 1.46859,4.9246 8.13759,8.7902 6.5198,3.7842 17.0018,7.4865 17.0018,7.4865 l 0.1076,-0.9053 z"
     fill="#aefcd0"
     id="path18" />
  <path
     d="M 88.1821,-7.32422e-4 C 85.622,7.47488 77.4191,10.6995 77.4191,10.6995 l 6.7807,7.0887 10.048,-8.68176 C 94.5203,2.31671 88.1925,-7.32422e-4 88.1925,-7.32422e-4 Z"
     fill="#87c6d6"
     id="path19" />
  <path
     d="M 91.5681,10.5728 C 93.4527,3.28406 88.1933,-7.32422e-4 88.1933,-7.32422e-4 c 0,0 6.3169,2.317442422 6.0552,9.107172422 L 91.3162,11.641 c 0.0542,-0.3076 0.1365,-0.6608 0.2445,-1.0682 z"
     fill="#77acab"
     id="path20" />
  <path
     d="m 81.248,11.4408 0.8971,2.1725 C 88.9797,9.51401 88.4915,4.48853 88.4915,4.48853 86.3087,8.9709 81.248,11.4408 81.248,11.4408 Z"
     fill="#c7fbf4"
     id="path21" />
  <path
     d="m 76.1874,55.7932 10.4764,0.3529 3.0482,-6.4003 -8.2823,-0.8784 z"
     fill="#18388a"
     id="path22" />
  <path
     d="m 85.7039,55.2302 1.4731,2.5619 c 0,0 3.9112,-2.9603 3.4683,-8.7181 l -2.3074,-0.4253 c 0,0 0.0913,3.9109 -2.634,6.5815 z"
     fill="#4949ba"
     id="path23" />
  <path
     d="m 76.2072,55.7921 -0.1192,1.0862 11.1013,0.9147 -1.4757,-2.5623 -9.5142,0.5607 z"
     fill="#360c72"
     id="path24" />
  <path
     d="m 80.2064,48.1784 12.2503,0.4071 3.5763,-7.4954 -9.6959,-1.0234 z"
     fill="#3e78cf"
     id="path25" />
  <path
     d="m 94.4036,39.8147 c 0,0 0.1166,4.5896 -3.0796,7.713 l 1.7288,2.9966 c 0,0 4.581,-3.4762 4.0559,-10.2117 l -2.6958,-0.4979 z"
     fill="#4949ba"
     id="path26" />
  <path
     d="M 80.0729,49.4462 93.064,50.5148 91.3446,47.5178 80.2093,48.179 Z"
     fill="#061778"
     id="path27" />
  <path
     d="M 81.069,29.7475 97.7445,23.9446 V 37.9494 L 80.632,39.6422 h -0.0085 v -0.0089 z"
     fill="#82bbf0"
     id="path28" />
  <path
     d="m 80.8878,34.3812 0.65,1.9011 c 12.7014,-2.2539 14.4499,-6.536 14.4499,-6.536 z"
     fill="#90f0e7"
     id="path29" />
  <path
     d="m 97.7247,23.9434 c 0,0 -0.0172,8.6818 -2.4438,13.1904 l 3.3121,3.5756 c 0,0 3.775,-6.5453 0,-17.6623 l -0.8597,0.8971 z"
     fill="#6666cc"
     id="path30" />
  <path
     d="m 98.6046,40.7012 -17.9811,1.1314 -0.434,-2.0277 15.1008,-2.6797 z"
     fill="#2a3296"
     id="path31" />
  <path
     d="m 79.3036,26.533 0.8773,6.1008 13.7432,-5.6579 c 2.6437,-1.0992 4.9441,-2.8875 6.6619,-5.1783 1.718,-2.2928 2.782,-5.0084 3.079,-7.858 0.013,-0.081 0.022,-0.1626 0.026,-0.2445 0.834,-8.1484 -2.68,-13.588411 -2.68,-13.588411 z"
     fill="#29668e"
     id="path32" />
  <path
     d="m 103.683,13.6863 c 0.831,-8.14839 -2.68,-13.5883996 -2.68,-13.5883996 l -0.579,0.7150376 -1.4756,15.317562 1.6446,5.6672 c 1.712,-2.2953 2.773,-5.01 3.071,-7.858 0.013,-0.0809 0.022,-0.1625 0.026,-0.2444 z"
     fill="#50a3a2"
     id="path33" />
  <path
     d="m 75.9632,24.2877 1.8913,4.87 c 0,0 12.0515,-4.0017 19.3122,-9.2249 8.2283,-5.9297 3.8453,-19.826111 3.8453,-19.826111 L 75.9632,24.2787 Z"
     fill="#bbc0ed"
     id="path34" />
  <path
     d="m 77.0927,22.9845 0.5607,1.7923 c 0,0 6.3292,-3.6754 13.834,-9.7317 C 98.9918,8.97972 101.01,0.107666 101.01,0.107666 Z"
     fill="#c7fbf4"
     id="path35" />
  <path
     d="m 75.9632,25.6103 0.1076,0.9053 c 0,0 10.4823,-3.7023 17.0018,-7.4865 6.6701,-3.8656 8.1374,-8.7906 8.1374,-8.7906 L 75.9718,25.6009 Z"
     fill="#aefcd0"
     id="path36" />
  <path
     d="m 52.0063,64.177 c 16.5686,0 30.0001,-13.4314 30.0001,-30 0,-16.5685 -13.4315,-30 -30.0001,-30 -16.5685,0 -30,13.4315 -30,30 0,16.5686 13.4315,30 30,30 z"
     fill="#aefcf0"
     id="path37" />
  <path
     d="M 52.0064,34.1764 40.5261,6.46021 C 32.8722,9.63061 27.2281,15.6029 24.2902,22.6961 Z"
     fill="#c7fbf4"
     id="path38" />
  <path
     d="m 30.7928,12.9636 21.2136,21.2128 h 0.0022 L 34.035,10.1536 c -1.1461,0.8585 -2.2295,1.7975 -3.2422,2.81 z"
     fill="#f8b7e1"
     id="path39" />
  <path
     d="M 24.2917,22.6962 52.0068,34.1769 30.7955,12.9641 c -2.7861,2.7848 -4.9972,6.0903 -6.5076,9.7284 z"
     fill="#fbefa2"
     id="path40" />
  <path
     d="m 52.0064,64.177 c -16.5686,0 -30.0001,-13.4314 -30.0001,-30 h 30.0001 z"
     fill="#fe9679"
     id="path41" />
  <path
     d="m 52.0064,34.177 v 30 c 16.5686,0 29.9996,-13.4314 29.9996,-30 z"
     fill="#7ee6fc"
     id="path42" />
  <path
     d="M 79.7233,45.658 52.0071,34.177 73.2196,55.3898 c 2.7861,-2.7848 4.9973,-6.0903 6.5079,-9.7284 z"
     fill="#5f9bdd"
     id="path43" />
  <path
     d="M 79.7233,22.6977 52.0071,34.1772 h 29.9993 c 9e-4,-3.9392 -0.7729,-7.8401 -2.2775,-11.4807 z"
     fill="#7ee6fc"
     id="path44" />
  <path
     d="M 30.7955,55.3902 52.0068,34.177 24.2917,45.6592 c 1.5071,3.6394 3.715,6.947 6.4982,9.7347 z"
     fill="#7c80f4"
     id="path45" />
  <path
     d="M 22.0079,34.1771 H 52.0068 L 24.2917,22.6975 c -1.508,3.639 -2.2857,7.539 -2.2891,11.4781 z"
     fill="#fe9679"
     id="path46" />
  <path
     d="m 52.0064,34.177 v 30 c 8.2841,0 15.784,-3.358 21.2132,-8.7868 z"
     fill="#5e50cc"
     id="path47" />
  <path
     d="m 52.0064,34.177 v 30 c -3.9404,0.0053 -7.8431,-0.7682 -11.4836,-2.2762 -3.6405,-1.5079 -6.947,-3.7205 -9.7296,-6.5106 z"
     fill="#1c66ba"
     id="path48" />
  <path
     d="m 52.0064,34.177 v 30 C 48.2301,64.1816 44.4871,63.4714 40.975,62.0838"
     fill="#1c3eba"
     id="path49" />
  <path
     d="m 52.0064,60.1214 c 14.3289,0 25.9449,-11.6159 25.9449,-25.9448 0,-14.329 -11.616,-25.94491 -25.9449,-25.94491 -14.329,0 -25.9449,11.61591 -25.9449,25.94491 0,14.3289 11.6159,25.9448 25.9449,25.9448 z"
     fill="#360c72"
     id="path51" />
  <path
     d="m 26.0615,34.177 c 0,14.3293 11.616,25.9452 25.9449,25.9452 14.3288,0 25.9448,-11.6159 25.9448,-25.9452 z"
     fill="#ffffff"
     id="path52" />
  <path
     d="m 52.0064,34.177 v 25.9452 c 14.3289,0 25.9449,-11.6159 25.9449,-25.9452 z"
     fill="#fec2b2"
     id="path53" />
  <path
     d="m 52.0063,58.2873 c 13.3158,0 24.1104,-10.7945 24.1104,-24.1103 0,-13.3158 -10.7946,-24.1103 -24.1104,-24.1103 -13.3157,0 -24.1103,10.7945 -24.1103,24.1103 0,13.3158 10.7946,24.1103 24.1103,24.1103 z"
     fill="#000000"
     id="path54" />
  <path
     d="m 52.0063,57.7604 c 13.0249,0 23.5838,-10.5588 23.5838,-23.5837 0,-13.0249 -10.5589,-23.5837 -23.5838,-23.5837 -13.0249,0 -23.5836,10.5588 -23.5836,23.5837 0,13.0249 10.5587,23.5837 23.5836,23.5837 z"
     fill="url(#paint0_linear_2_669)"
     id="path55" />
  <path
     d="m 63.8795,7.76095 -2.3829,2.26245 0.3671,2.1448 -5.9207,-1.6346 2.3627,-4.74136 c 0,0 4.0342,0.5375 5.5738,1.96871 z"
     fill="#000000"
     id="path57" />
  <path
     d="m 58.1257,31.1622 6.1875,-1.5886 -3e-4,-4e-4 -6.1876,1.589 z"
     fill="#ffffff"
     id="path69" />
  <path
     d="m 46.7911,34.0723 -9.0585,2.3256 v 4e-4 l 9.0582,-2.3257 z"
     fill="#ffffff"
     id="path70" />
  <path
     d="m 46.6237,36.3301 c 0.0074,0.0803 0.0175,0.16 0.028,0.2392 z"
     fill="#fbfaa2"
     id="path79" />
  <path
     d="m 50.1245,35.6774 c 0,-0.0845 0.0056,-0.1674 0.012,-0.2497 z"
     fill="#fbfaa2"
     id="path80" />
  <g
     id="g208">
    <path
       d="m 44.8956,61.0069 4.1781,2.5563 -0.0172,0.0093 7.2151,-0.29 3.6559,-1.5594 V 58.593 Z"
       fill="#000002"
       id="path50" />
    <path
       d="m 57.3591,59.8488 -1.6151,0.7023 -0.286,-0.2796 0.6643,-1.6338 1.2525,-0.0437 z"
       fill="#ffffff"
       id="path95" />
    <path
       d="m 55.3601,62.6338 0.3839,-2.0835 -0.286,-0.2795 -2.0729,0.432 z"
       fill="#231bcc"
       id="path96" />
    <path
       d="m 53.385,60.7032 2.073,-0.4321 0.6643,-1.6338 -1.1999,-1.7171 z"
       fill="#08107f"
       id="path97" />
    <path
       d="m 54.9225,56.9207 1.1998,1.7172 1.2525,-0.0438 1.7808,-1.8214 z"
       fill="#fbfaa2"
       id="path98" />
    <path
       d="m 57.3748,58.5941 -0.0157,1.2548 1.7441,1.1591 0.0523,-4.2353 z"
       fill="#00ccc6"
       id="path99" />
    <path
       d="M 53.3772,60.6994 H 50.615 l -1.5389,-3.7797 2.923,-3.065 2.9237,3.065 z"
       fill="#9ffffc"
       id="path100" />
    <path
       d="m 51.133,57.3099 0.6642,1.6312 h 0.3995 l 0.6677,-1.6327 -0.865,-0.9068 z"
       fill="#ffffff"
       id="path101" />
    <path
       d="m 50.615,60.6995 1.1822,-1.7578 h 0.3996 l 1.1804,1.7578 z"
       fill="#6666cc"
       id="path102" />
    <path
       d="m 50.615,60.6989 -1.5389,-3.7797 2.0569,0.3906 0.6642,1.6312 z"
       fill="#00f3ef"
       id="path103" />
    <path
       d="m 53.3772,60.6989 -1.1804,-1.7579 0.6676,-1.6327 2.0584,-0.3891 z"
       fill="#00f3ef"
       id="path104" />
    <path
       d="m 54.9228,56.9197 -2.0584,0.3891 -0.865,-0.9067 -3e-4,-2.5474 z"
       fill="#231bcc"
       id="path105" />
    <path
       d="m 51.9994,56.4021 -0.8664,0.9082 -2.0569,-0.3906 2.923,-3.065 z"
       fill="#ffd580"
       id="path106" />
    <path
       d="m 50.6135,60.7038 -1.9751,1.9309 -3.7426,-1.6267 -0.0527,-4.2353 4.233,0.148 z"
       fill="#9ffffc"
       id="path107" />
    <path
       d="m 46.6394,59.8488 1.6155,0.7023 0.2856,-0.2796 -0.6643,-1.6338 -1.2525,-0.0437 z"
       fill="#ffffff"
       id="path108" />
    <path
       d="m 48.6384,62.6338 -0.3835,-2.0835 0.2856,-0.2795 2.073,0.432 z"
       fill="#07735a"
       id="path109" />
    <path
       d="m 48.6384,62.6347 -3.7426,-1.6267 1.7436,-1.1591 1.6155,0.7023 z"
       fill="#00f3ef"
       id="path110" />
    <path
       d="m 50.6135,60.7032 -2.073,-0.4321 -0.6642,-1.6338 1.1998,-1.7171 z"
       fill="#231bcc"
       id="path111" />
    <path
       d="m 49.0761,56.9207 -1.1998,1.7172 -1.2526,-0.0438 -1.7806,-1.8214 z"
       fill="#fbfaa2"
       id="path112" />
    <path
       d="m 46.6237,58.5941 0.0157,1.2548 -1.7436,1.1591 -0.0527,-4.2353 z"
       fill="#ffd580"
       id="path113" />
    <path
       d="m 48.6384,62.6342 1.975,-1.931 2.7638,-0.0037 1.9829,1.9347 z"
       fill="#a6ff4d"
       id="path114" />
    <path
       d="m 55.3602,62.6347 3.743,-1.6267 -1.744,-1.1591 -1.6152,0.7023 z"
       fill="#08107f"
       id="path115" />
  </g>
  <g
     id="g190">
    <path
       d="M 45.6873,0.232666 45.2761,1.43438 C 39.5072,3.03902 33.9764,7.63353 29.7268,11.8827 25.4773,16.1318 20.8682,21.6735 19.2632,27.4473 l -1.2013,0.4111 0.8223,1.2731 4.8289,-1.1822 c 0.0448,-0.2039 0.0937,-0.401 0.1465,-0.5914 2.5862,-10.7028 11.1357,-19.10352 21.92,-21.47516 l 1.1819,-4.82887 z"
       fill="#2a3296"
       id="path116" />
    <path
       d="M 27.6056,9.76114 C 22.6011,14.7657 19.326,21.0377 18.0742,27.8521 l 4.6622,-1.1445 C 24.0955,21.638 26.7646,16.5408 30.5753,12.7282 34.386,8.91565 39.4765,6.25247 44.542,4.89265 L 45.6869,0.229736 C 38.8759,1.48489 32.6079,4.75921 27.6056,9.76114 Z"
       fill="#6e82e5"
       id="path117" />
  </g>
  <g
     id="g191">
    <path
       d="m 58.3113,0.232666 0.4111,1.201714 c 5.769,1.60464 11.2998,6.19915 15.5493,10.44832 4.2495,4.2491 8.8586,9.7908 10.4636,15.5646 l 1.2014,0.4111 -0.8223,1.2731 -4.8289,-1.1822 C 80.2406,27.7454 80.1918,27.5483 80.139,27.3579 77.5528,16.6551 69.0033,8.25438 58.219,5.88274 L 57.0386,1.0535 Z"
       fill="#2a3296"
       id="path118" />
    <path
       d="M 76.393,9.76146 C 71.391,4.75953 65.1227,1.48521 58.3117,0.232666 l 1.1445,4.662914 c 5.0655,1.35981 10.159,4.02787 13.9667,7.83562 3.8077,3.8077 6.4799,8.9083 7.8389,13.9793 l 4.6622,1.1446 C 84.6726,21.0384 81.3975,14.7675 76.393,9.76146 Z"
       fill="#6e82e5"
       id="path119" />
  </g>
  <g
     id="g195">
    <path
       d="m 58.3113,68.1061 0.4112,-1.2017 c 5.7689,-1.6046 11.2997,-6.1991 15.5493,-10.4483 4.2495,-4.2491 8.8586,-9.7908 10.4636,-15.5646 l 1.2013,-0.4111 -0.8223,-1.2731 -4.8289,1.1822 c -0.0448,0.2036 -0.0937,0.4007 -0.1465,0.5914 -2.5862,10.7028 -11.1357,19.1035 -21.92,21.4752 l -1.1819,4.8288 z"
       fill="#d3ffb3"
       id="path120" />
    <path
       d="m 76.393,58.5776 c 5.0045,-5.005 8.2796,-11.277 9.5314,-18.091 l -4.6622,1.1445 c -1.359,5.0692 -4.0278,10.1668 -7.8389,13.9775 -3.8111,3.8107 -8.9012,6.4761 -13.9667,7.836 L 58.3113,68.106 C 65.1227,66.8538 71.391,63.5795 76.393,58.5776 Z"
       fill="#7cb3e5"
       id="path121" />
  </g>
  <g
     id="g193">
    <path
       d="M 45.6873,68.1061 45.2761,66.9044 C 39.5072,65.2998 33.9764,60.7053 29.7268,56.4561 25.4773,52.207 20.8682,46.6653 19.2632,40.8915 l -1.2013,-0.4111 0.8223,-1.2731 4.8289,1.1822 c 0.0448,0.2036 0.0937,0.4007 0.1465,0.5914 2.5862,10.7028 11.1357,19.1035 21.92,21.4752 l 1.1819,4.8288 z"
       fill="#d3ffb3"
       id="path122" />
    <path
       d="M 44.5424,63.4426 C 39.4769,62.0828 34.3834,59.4147 30.5757,55.6067 26.768,51.7986 24.0958,46.6983 22.7371,41.6291 l -4.6625,-1.1445 c 1.2514,6.8152 4.5265,13.0872 9.5314,18.091 5.0049,5.0038 11.2699,8.2774 18.0813,9.5295 z"
       fill="#7cb3e5"
       id="path123" />
  </g>
  <g
     id="g192">
    <path
       d="m 36.3204,61.6339 -0.616,-0.3364 -0.1731,-0.1178 C 30.5921,57.9623 26.5173,53.5826 23.6641,48.4244 l -0.1278,-0.2265 c -0.1248,-0.2358 -0.3065,-0.5804 -0.3065,-0.5804 l -4.6405,-0.5801 -1.3056,0.7434 h 0.0086 l 4.6943,1.3781 c 3.1437,5.7235 7.7051,10.5433 13.2468,13.9974 l 0.4511,0.2807 1.1438,4.7324 0.7779,-1.0698 z"
       fill="#aefcf0"
       id="path124" />
    <path
       d="M 35.5028,62.7036 C 29.915,59.2193 25.3387,54.3304 22.2306,48.5249 l -4.947,-0.7434 c 3.9156,8.8773 10.8321,16.0923 19.5361,20.3793 z"
       fill="#9c9cf0"
       id="path125" />
    <path
       d="M 35.0259,65.8425 C 28.3081,61.9607 22.8579,56.217 19.3335,49.3049 l 2.1305,0.32 c 3.121,5.6128 7.5826,10.3658 12.987,13.8351 z"
       fill="#f8b7e1"
       id="path126" />
  </g>
  <g
     id="g194">
    <path
       d="m 85.4007,47.0374 -4.6405,0.5801 c 0,0 -0.1817,0.3446 -0.3095,0.5804 l -0.1278,0.2265 c -2.8529,5.1575 -6.9265,9.537 -11.8642,12.7553 l -0.1731,0.1178 -0.6159,0.3364 -1.2885,5.4665 0.7805,1.0698 1.1411,-4.7231 0.4542,-0.2811 c 5.5408,-3.4541 10.1011,-8.274 13.2434,-13.9973 l 4.6977,-1.3872 h 0.0082 z"
       fill="#aefcf0"
       id="path127" />
    <path
       d="m 81.7563,48.5249 c -3.103,5.8064 -7.6768,10.6958 -13.2636,14.1787 l -1.3142,5.4572 C 75.8813,63.8721 82.7974,56.6576 86.7149,47.7815 Z"
       fill="#9c9cf0"
       id="path128" />
    <path
       d="M 69.5453,63.4575 C 74.95,59.9904 79.4103,55.2368 82.5267,49.6227 L 84.6666,49.302 C 81.1415,56.2146 75.691,61.9593 68.9731,65.8426 Z"
       fill="#f8b7e1"
       id="path129" />
  </g>
  <g
     id="g188">
    <path
       d="m 36.3203,6.76823 -0.616,0.3364 -0.1731,0.11774 C 30.5921,10.4397 26.5174,14.8193 23.6641,19.9773 l -0.1279,0.2265 c -0.1248,0.2358 -0.3065,0.5805 -0.3065,0.5805 l -4.6404,0.5801 -1.3057,-0.7431 h 0.0086 l 4.6944,-1.3781 C 25.1302,13.5197 29.6916,8.69985 35.2333,5.24582 l 0.4512,-0.28109 1.1438,-4.732064 0.7778,1.069764 z"
       fill="#faff59"
       id="path130" />
    <path
       d="M 35.5028,5.69963 C 29.9149,9.18383 25.3386,14.0727 22.2306,19.8783 l -4.947,0.7434 C 21.1991,11.7444 28.1156,4.52933 36.8197,0.242432 Z"
       fill="#f8b7e1"
       id="path131" />
    <path
       d="M 35.0259,2.55981 C 28.3077,6.44197 22.8574,12.1864 19.3335,19.0992 L 21.464,18.7793 C 24.585,13.1665 29.0466,8.41346 34.451,4.94416 Z"
       fill="#fbfaa2"
       id="path132" />
  </g>
  <g
     id="g189">
    <path
       d="m 85.4007,21.3647 -4.6405,-0.579 c 0,0 -0.1817,-0.3446 -0.3095,-0.5804 L 80.3229,19.9788 C 77.4699,14.8215 73.3963,10.4421 68.4587,7.22386 L 68.2856,7.10538 67.6697,6.76897 66.3812,1.30243 67.1617,0.232666 68.3028,4.95576 68.757,5.23685 c 5.5409,3.45396 10.1012,8.27385 13.2434,13.99735 l 4.6977,1.3871 h 0.0082 z"
       fill="#5e50cc"
       id="path133" />
    <path
       d="M 81.7563,19.8783 C 78.6534,14.0718 74.0796,9.18237 68.4927,5.69963 L 67.1785,0.242432 C 75.8814,4.53096 82.7975,11.7455 86.7149,20.6217 Z"
       fill="#f8b7e1"
       id="path134" />
    <path
       d="m 69.5453,4.94393 c 5.4047,3.46711 9.865,8.22057 12.9814,13.83477 l 2.1399,0.3207 C 81.1415,12.1868 75.691,6.44214 68.9731,2.55884 Z"
       fill="#fbfaa2"
       id="path135" />
  </g>
  <g
     id="g207">
    <path
       d="m 53.6253,8.26699 2.3178,2.26621 4.3916,-1.90887 0.0617,-4.96979 -4.9669,0.17344 z"
       fill="#9ffffc"
       id="path136" />
    <path
       d="M 58.2886,7.26493 56.3932,8.08912 56.0579,7.76131 56.8372,5.84382 58.3069,5.79224 Z"
       fill="#ffffff"
       id="path137" />
    <path
       d="M 55.9431,10.5337 56.3932,8.08879 56.0579,7.76099 53.6253,8.26746 Z"
       fill="#360c72"
       id="path138" />
    <path
       d="M 55.9431,10.533 60.3347,8.6241 58.2886,7.26392 56.3932,8.0881 Z"
       fill="#3c28f9"
       id="path139" />
    <path
       d="M 53.6253,8.26739 56.0579,7.76092 56.8372,5.84342 55.4295,3.82837 Z"
       fill="#3c28f9"
       id="path140" />
    <path
       d="m 55.4295,3.82798 1.4077,2.01505 1.4697,-0.05158 2.0894,-2.13691 z"
       fill="#ffcc66"
       id="path141" />
    <path
       d="m 58.3069,5.79145 -0.0183,1.47269 2.0461,1.36019 0.0617,-4.96979 z"
       fill="#ff9933"
       id="path142" />
    <path
       d="M 53.616,8.26349 H 50.3745 L 48.5692,3.82821 51.999,0.231689 55.4295,3.82821 Z"
       fill="#9ffffc"
       id="path143" />
    <path
       d="m 50.9827,4.28562 0.7793,1.9145 h 0.4687 l 0.7834,-1.916 -1.0148,-1.06415 z"
       fill="#fbfaa2"
       id="path144" />
    <path
       d="m 50.3745,8.26334 1.3875,-2.0629 h 0.4687 l 1.3853,2.0629 z"
       fill="#360c72"
       id="path145" />
    <path
       d="M 50.3745,8.26365 48.5692,3.82837 50.9827,4.28625 51.762,6.20076 Z"
       fill="#3399ff"
       id="path146" />
    <path
       d="m 53.6159,8.26365 -1.3852,-2.06289 0.7835,-1.916 2.4153,-0.45639 z"
       fill="#3399ff"
       id="path147" />
    <path
       d="M 55.4295,3.82821 53.0142,4.28459 51.9994,3.22044 51.999,0.231689 Z"
       fill="#00ccc6"
       id="path148" />
    <path
       d="M 51.9994,3.22044 50.9827,4.28609 48.5692,3.82821 51.999,0.231689 Z"
       fill="#ffcc66"
       id="path149" />
    <path
       d="M 50.373,8.26699 48.0552,10.5332 43.6637,8.62433 43.602,3.65454 48.5692,3.82798 Z"
       fill="#9ffffc"
       id="path150" />
    <path
       d="M 45.7097,7.26493 47.6051,8.08912 47.9404,7.76131 47.1611,5.84382 45.6914,5.79224 Z"
       fill="#fbfaa2"
       id="path151" />
    <path
       d="m 48.0552,10.5337 -0.45,-2.44491 0.3353,-0.3278 2.4325,0.50647 z"
       fill="#360c72"
       id="path152" />
    <path
       d="M 48.0553,10.533 43.6637,8.6241 45.7098,7.26392 47.6052,8.0881 Z"
       fill="#a9abf4"
       id="path153" />
    <path
       d="M 50.373,8.26739 47.9405,7.76092 47.1612,5.84342 48.5692,3.82837 Z"
       fill="#a9abf4"
       id="path154" />
    <path
       d="M 48.5692,3.82798 47.1612,5.84303 45.6914,5.79145 43.602,3.65454 Z"
       fill="#ffcc66"
       id="path155" />
    <path
       d="M 45.6914,5.79145 45.7098,7.26414 43.6637,8.62433 43.602,3.65454 Z"
       fill="#ffffff"
       id="path156" />
    <path
       d="m 50.373,12.7993 -2.3178,-2.2659 -4.3915,1.9089 -0.0617,4.9695 4.9672,-0.1735 z"
       fill="#9ffffc"
       id="path157" />
    <path
       d="m 45.7097,13.8016 1.8954,-0.8238 0.3353,0.3274 -0.7793,1.9175 -1.4697,0.0516 z"
       fill="#00f3ef"
       id="path158" />
    <path
       d="m 48.0552,10.5334 -0.45,2.4449 0.3353,0.3275 2.4325,-0.5065 z"
       fill="#360c72"
       id="path159" />
    <path
       d="m 48.0552,10.5334 -4.3915,1.9089 2.0461,1.3599 1.8954,-0.8239 z"
       fill="#fe9679"
       id="path160" />
    <path
       d="m 50.373,12.8 -2.4325,0.5065 -0.7794,1.9175 1.4081,2.0151 z"
       fill="#fe9679"
       id="path161" />
    <path
       d="m 48.5692,17.2389 -1.408,-2.015 -1.4698,0.0516 -2.0894,2.1369 z"
       fill="#3c28f9"
       id="path162" />
    <path
       d="M 45.6914,15.2751 45.7098,13.8024 43.6637,12.4426 43.602,17.412 Z"
       fill="#ffcc66"
       id="path163" />
    <path
       d="m 50.3824,12.804 h 3.2415 l 1.8056,4.4349 -3.4301,3.5965 -3.4302,-3.5965 z"
       fill="#9ffffc"
       id="path164" />
    <path
       d="m 53.0156,16.781 -0.7793,-1.9145 h -0.4687 l -0.7835,1.916 1.0152,1.0641 z"
       fill="#00f3ef"
       id="path165" />
    <path
       d="m 53.6238,12.804 -1.3875,2.0625 H 51.7676 L 50.3824,12.804 Z"
       fill="#360c72"
       id="path166" />
    <path
       d="m 53.6238,12.804 1.8057,4.4349 -2.4139,-0.4579 -0.7793,-1.9145 z"
       fill="#6666cc"
       id="path167" />
    <path
       d="m 50.3824,12.804 1.3853,2.0625 -0.7835,1.916 -2.415,0.4564 z"
       fill="#6666cc"
       id="path168" />
    <path
       d="m 48.5692,17.2389 2.415,-0.4564 1.0152,1.0641 v 2.9888 z"
       fill="#a6ff4d"
       id="path169" />
    <path
       d="m 51.9994,17.8462 1.0162,-1.0657 2.4139,0.4579 -3.4301,3.5965 z"
       fill="#3c28f9"
       id="path170" />
    <path
       d="m 53.6253,12.7993 2.3178,-2.2659 4.3916,1.9089 0.0617,4.9695 -4.9669,-0.1735 z"
       fill="#9ffffc"
       id="path171" />
    <path
       d="m 58.2886,13.8016 -1.8954,-0.8238 -0.3353,0.3274 0.7793,1.9175 1.4697,0.0516 z"
       fill="#00f3ef"
       id="path172" />
    <path
       d="m 55.9431,10.5334 0.4501,2.4449 -0.3353,0.3275 -2.4326,-0.5065 z"
       fill="#360c72"
       id="path173" />
    <path
       d="m 55.9431,10.5334 4.3916,1.9089 -2.0461,1.3599 -1.8954,-0.8239 z"
       fill="#3c28f9"
       id="path174" />
    <path
       d="m 53.6253,12.8 2.4326,0.5065 0.7793,1.9175 -1.4077,2.0151 z"
       fill="#3c28f9"
       id="path175" />
    <path
       d="m 55.4295,17.2389 1.4077,-2.015 1.4697,0.0516 2.0894,2.1369 z"
       fill="#a6ff4d"
       id="path176" />
    <path
       d="m 58.3069,15.2751 -0.0183,-1.4727 2.0461,-1.3598 0.0616,4.9694 z"
       fill="#6666cc"
       id="path177" />
    <path
       d="m 48.0552,10.5339 2.3178,-2.26625 3.243,-0.00373 2.3271,2.26998 -2.3178,2.2658 -3.2429,0.0042 z"
       fill="#ffcc66"
       id="path178" />
    <path
       d="m 48.0552,10.5339 h 7.8879 L 53.616,8.26392 50.373,8.26765 Z"
       fill="#ffcc66"
       id="path179" />
    <path
       d="m 50.373,8.26765 v 2.26625 h 3.243 V 8.26392 Z"
       fill="#00f3ef"
       id="path180" />
    <path
       d="m 53.616,10.5334 h -3.243 v 2.27 h 3.243 z"
       fill="#fe9679"
       id="path181" />
    <path
       d="M 50.373,10.5331 H 48.0552 L 50.373,8.26685 Z"
       fill="#ffffff"
       id="path182" />
    <path
       d="m 53.616,8.26392 v 2.26998 h 2.3271 z"
       fill="#a9abf4"
       id="path183" />
    <path
       d="M 55.9431,10.5334 H 53.616 v 2.27 z"
       fill="#3399ff"
       id="path184" />
  </g>

  <path id="path_1" d="M 0 0 L 52 34 L 104 0 L 52 69 L 0 0" fill="none" stroke-width="0"/>
  <path id="path_2" d="M 0 69 L 52 0 L 104 69 L 52 34 L 0 69" fill="none" stroke-width="0"/>
  <circle cx="0" cy="0" r="5" stroke="none" fill="#4080F0" opacity="0.75">
    <animateMotion id="animation_1" begin="0s" dur="5s" repeatCount="indefinite" rotate="auto">
      <mpath xlink:href="#path_1"/>
    </animateMotion>
  </circle>

  <circle cx="0" cy="0" r="5" stroke="none" fill="#4080F0" opacity="0.75">
    <animateMotion id="animation_1" begin="0s" dur="5s" repeatCount="indefinite" rotate="auto">
      <mpath xlink:href="#path_2"/>
    </animateMotion>
  </circle>

  <defs
     id="defs188">
    <linearGradient
       id="linearGradient195">
      <stop
         style="stop-color:#ff7ad9;stop-opacity:1;"
         offset="0"
         id="stop195" />
      <stop
         style="stop-color:#f8b7e1;stop-opacity:1;"
         offset="0.19747899"
         id="stop197" />
      <stop
         style="stop-color:#ffd3d3;stop-opacity:1;"
         offset="0.29831934"
         id="stop198" />
      <stop
         style="stop-color:#fbfaa2;stop-opacity:1;"
         offset="0.37394959"
         id="stop199" />
      <stop
         style="stop-color:#5afff7;stop-opacity:1;"
         offset="0.46428573"
         id="stop200" />
      <stop
         style="stop-color:#1ea5ff;stop-opacity:1;"
         offset="0.53571427"
         id="stop201" />
      <stop
         style="stop-color:#1fd2ff;stop-opacity:1;"
         offset="0.60924369"
         id="stop202" />
      <stop
         style="stop-color:#7ee6fc;stop-opacity:1;"
         offset="0.72478992"
         id="stop203" />
      <stop
         style="stop-color:#b1edff;stop-opacity:1;"
         offset="0.83613443"
         id="stop204" />
      <stop
         style="stop-color:#dbfdf7;stop-opacity:1;"
         offset="1"
         id="stop196" />
    </linearGradient>
    <linearGradient
       id="paint0_linear_2_669"
       x1="52.006401"
       y1="10.5934"
       x2="52.006401"
       y2="57.760399"
       gradientUnits="userSpaceOnUse">
      <stop
         stop-color="#0D0023"
         id="stop184" />
      <stop
         offset="0.3"
         stop-color="#078292"
         id="stop185" />
      <stop
         offset="0.6"
         stop-color="#025A9D"
         id="stop186" />
      <stop
         offset="0.8"
         stop-color="#290E52"
         id="stop187" />
      <stop
         offset="1"
         stop-color="#000826"
         id="stop188" />
    </linearGradient>
    <linearGradient
       xlink:href="#linearGradient195"
       id="linearGradient196"
       x1="17.814182"
       y1="82.610023"
       x2="15.278105"
       y2="67.000648"
       gradientUnits="userSpaceOnUse"
       gradientTransform="matrix(0.56551248,0,0,0.56551248,34.740243,-9.941998)"
       spreadMethod="pad" />
    <linearGradient
       xlink:href="#linearGradient195"
       id="linearGradient206"
       gradientUnits="userSpaceOnUse"
       gradientTransform="matrix(0.56551248,0,0,0.56551248,35.075462,5.8931401)"
       x1="32.659882"
       y1="79.383461"
       x2="29.977543"
       y2="65.245491"
       spreadMethod="pad" />
  </defs>
  <text
     xml:space="preserve"
     style="font-size:12px;line-height:0.95;font-family:sans-serif;text-align:center;text-anchor:middle;fill:url(#linearGradient196);stroke:#7639da;stroke-width:1;stroke-opacity:0.660891;paint-order:markers stroke fill"
     x="52.154182"
     y="34.822216"
     id="text195"><tspan
       x="52.154182"
       y="34.822216"
       style="font-style:normal;font-variant:normal;font-weight:bold;font-stretch:normal;font-size:12px;line-height:0.95;font-family:'Bitstream Vera Sans';-inkscape-font-specification:'Bitstream Vera Sans Bold';text-align:center;text-anchor:middle;fill:url(#linearGradient196);fill-opacity:1;stroke:#7639da;stroke-width:1;stroke-opacity:0.660891;paint-order:markers stroke fill"
       id="tspan204">Coding</tspan></text>
  <text
     xml:space="preserve"
     style="font-size:16px;line-height:1.25;font-family:sans-serif;text-align:center;text-anchor:middle;fill:url(#linearGradient206);stroke:#7639da;stroke-width:1;stroke-opacity:0.662745;paint-order:markers stroke fill"
     x="52.489399"
     y="50.657349"
     id="text206"><tspan
       x="52.489399"
       y="50.657349"
       style="font-style:normal;font-variant:normal;font-weight:bold;font-stretch:normal;font-size:16px;font-family:'Bitstream Vera Sans';-inkscape-font-specification:'Bitstream Vera Sans Bold';fill:url(#linearGradient206);fill-opacity:1;stroke:#7639da;stroke-width:1;stroke-opacity:0.662745;paint-order:markers stroke fill"
       id="tspan206">Lab</tspan></text>
</svg>
